<svg width="32" height="32" viewBox="0 0 32 32" fill="none" xmlns="http://www.w3.org/2000/svg">
<path d="M26.6667 10.6667L18.6667 3.65334C17.9333 2.9974 16.9839 2.63477 16 2.63477C15.0161 2.63477 14.0667 2.9974 13.3333 3.65334L5.33333 10.6667C4.90983 11.0454 4.57187 11.5101 4.34196 12.0297C4.11206 12.5493 3.99548 13.1119 4 13.68V25.3333C4 26.3942 4.42143 27.4116 5.17157 28.1618C5.92172 28.9119 6.93913 29.3333 8 29.3333H24C25.0609 29.3333 26.0783 28.9119 26.8284 28.1618C27.5786 27.4116 28 26.3942 28 25.3333V13.6667C28.0026 13.1008 27.8851 12.5407 27.6553 12.0236C27.4254 11.5064 27.0885 11.044 26.6667 10.6667V10.6667ZM18.6667 26.6667H13.3333V20C13.3333 19.6464 13.4738 19.3072 13.7239 19.0572C13.9739 18.8072 14.313 18.6667 14.6667 18.6667H17.3333C17.687 18.6667 18.0261 18.8072 18.2761 19.0572C18.5262 19.3072 18.6667 19.6464 18.6667 20V26.6667ZM25.3333 25.3333C25.3333 25.687 25.1929 26.0261 24.9428 26.2762C24.6928 26.5262 24.3536 26.6667 24 26.6667H21.3333V20C21.3333 18.9391 20.9119 17.9217 20.1618 17.1716C19.4116 16.4214 18.3942 16 17.3333 16H14.6667C13.6058 16 12.5884 16.4214 11.8382 17.1716C11.0881 17.9217 10.6667 18.9391 10.6667 20V26.6667H8C7.64638 26.6667 7.30724 26.5262 7.05719 26.2762C6.80714 26.0261 6.66667 25.687 6.66667 25.3333V13.6667C6.66691 13.4774 6.70746 13.2903 6.78562 13.1178C6.86379 12.9454 6.97778 12.7916 7.12 12.6667L15.12 5.66668C15.3633 5.45292 15.6761 5.33503 16 5.33503C16.3239 5.33503 16.6367 5.45292 16.88 5.66668L24.88 12.6667C25.0222 12.7916 25.1362 12.9454 25.2144 13.1178C25.2925 13.2903 25.3331 13.4774 25.3333 13.6667V25.3333Z" fill="#0000C4"/>
</svg>
