<svg width="32" height="32" viewBox="0 0 32 32" fill="none" xmlns="http://www.w3.org/2000/svg">
<path d="M23.875 15.0129H17.125V8.26294C17.125 7.96457 17.0065 7.67842 16.7955 7.46744C16.5845 7.25647 16.2984 7.13794 16 7.13794C15.7016 7.13794 15.4155 7.25647 15.2045 7.46744C14.9935 7.67842 14.875 7.96457 14.875 8.26294V15.0129H8.125C7.82663 15.0129 7.54048 15.1315 7.32951 15.3424C7.11853 15.5534 7 15.8396 7 16.1379C7 16.4363 7.11853 16.7225 7.32951 16.9334C7.54048 17.1444 7.82663 17.2629 8.125 17.2629H14.875V24.0129C14.875 24.3113 14.9935 24.5975 15.2045 24.8084C15.4155 25.0194 15.7016 25.1379 16 25.1379C16.2984 25.1379 16.5845 25.0194 16.7955 24.8084C17.0065 24.5975 17.125 24.3113 17.125 24.0129V17.2629H23.875C24.1734 17.2629 24.4595 17.1444 24.6705 16.9334C24.8815 16.7225 25 16.4363 25 16.1379C25 15.8396 24.8815 15.5534 24.6705 15.3424C24.4595 15.1315 24.1734 15.0129 23.875 15.0129Z" fill="#0000C4"/>
<rect x="1.25" y="1.25" width="29.5" height="29.5" rx="6.75" stroke="#0000C4" stroke-width="2.5"/>
</svg>
