<svg width="32" height="32" viewBox="0 0 32 32" fill="none" xmlns="http://www.w3.org/2000/svg">
<path d="M28.5467 11.52V11.4533C27.6072 8.8883 25.9026 6.67372 23.6633 5.10916C21.4241 3.5446 18.7583 2.70557 16.0267 2.70557C13.295 2.70557 10.6292 3.5446 8.39001 5.10916C6.15078 6.67372 4.44613 8.8883 3.50667 11.4533C3.50667 11.4533 3.50667 11.4533 3.50667 11.52C2.4575 14.4145 2.4575 17.5855 3.50667 20.48V20.5467C4.44613 23.1117 6.15078 25.3263 8.39001 26.8909C10.6292 28.4554 13.295 29.2944 16.0267 29.2944C18.7583 29.2944 21.4241 28.4554 23.6633 26.8909C25.9026 25.3263 27.6072 23.1117 28.5467 20.5467C28.5467 20.5467 28.5467 20.5467 28.5467 20.48C29.5958 17.5855 29.5958 14.4145 28.5467 11.52V11.52ZM5.68 18.6667C5.21764 16.919 5.21764 15.0811 5.68 13.3333H8.16C7.94671 15.1047 7.94671 16.8953 8.16 18.6667H5.68ZM6.77333 21.3333H8.64C8.95296 22.5225 9.40028 23.6721 9.97333 24.76C8.66573 23.8692 7.57266 22.6988 6.77333 21.3333ZM8.64 10.6667H6.77333C7.56116 9.30545 8.64026 8.13529 9.93333 7.24C9.37407 8.32966 8.94019 9.47923 8.64 10.6667V10.6667ZM14.6667 26.2667C13.029 25.0649 11.8789 23.3136 11.4267 21.3333H14.6667V26.2667ZM14.6667 18.6667H10.8533C10.6045 16.8976 10.6045 15.1024 10.8533 13.3333H14.6667V18.6667ZM14.6667 10.6667H11.4267C11.8789 8.68636 13.029 6.9351 14.6667 5.73334V10.6667ZM25.2267 10.6667H23.36C23.047 9.47755 22.5997 8.32792 22.0267 7.24C23.3343 8.13076 24.4273 9.30126 25.2267 10.6667ZM17.3333 5.73334C18.971 6.9351 20.1211 8.68636 20.5733 10.6667H17.3333V5.73334ZM17.3333 26.2667V21.3333H20.5733C20.1211 23.3136 18.971 25.0649 17.3333 26.2667V26.2667ZM21.1467 18.6667H17.3333V13.3333H21.1467C21.3955 15.1024 21.3955 16.8976 21.1467 18.6667ZM22.0667 24.76C22.6397 23.6721 23.087 22.5225 23.4 21.3333H25.2667C24.4673 22.6988 23.3743 23.8692 22.0667 24.76ZM26.32 18.6667H23.84C23.9484 17.7819 24.0019 16.8913 24 16C24.0015 15.1087 23.948 14.2181 23.84 13.3333H26.32C26.7824 15.0811 26.7824 16.919 26.32 18.6667Z" fill="#2D323E"/>
</svg>
